#N canvas 459 105 1002 481 12;
#X obj 155 331 doubleLongClick;
#X floatatom 257 209 5 0 0 0 - - - 0;
#X floatatom 327 254 5 0 0 0 - - - 0;
#X msg 327 277 longPressTime \$1;
#X msg 257 232 doubleClickTime \$1;
#X text 340 204 default to 250 ms;
#X obj 100 372 print clicked;
#X obj 181 395 print doubleClicked;
#X obj 230 364 print longPressed;
#X obj 355 396 print doubleLongPressed;
#X obj 76 51 keyname;
#X obj 123 86 sel Space;
#X msg 123 110 1;
#X msg 183 111 0;
#X obj 76 146 spigot;
#X obj 76 170 tgl 19 0 empty empty empty 0 -10 0 12 #fcfcfc #000000 #000000 0 1;
#X text 517 85 takes 1 and 0 like from a momentary button;
#X text 180 55 TEST with the space keyboard input;
#X text 502 183 note: the clicked will always be delayed by doubleclicktime!;
#X text 517 114 outputs four combinations of click and longclick;
#X connect 0 0 6 0;
#X connect 0 1 7 0;
#X connect 0 2 8 0;
#X connect 0 3 9 0;
#X connect 1 0 4 0;
#X connect 2 0 3 0;
#X connect 3 0 0 1;
#X connect 4 0 0 1;
#X connect 10 0 14 0;
#X connect 10 1 11 0;
#X connect 11 0 12 0;
#X connect 11 1 13 0;
#X connect 12 0 14 1;
#X connect 13 0 14 1;
#X connect 14 0 15 0;
#X connect 15 0 0 0;
