#N canvas 825 85 967 815 10;
#X obj 273 46 inlet;
#X obj 135 180 t f f;
#X obj 86 235 spigot;
#X obj 130 216 == 0;
#X obj 266 230 spigot;
#X obj 43 333 change;
#X obj 43 354 == 0;
#X obj 44 403 spigot;
#X obj 182 422 spigot;
#X msg 140 321 bang;
#X msg 167 377 stop;
#X obj 88 607 spigot;
#X obj 141 574 == 0;
#X obj 283 558 timer;
#X msg 458 263 bang;
#X msg 587 266 stop;
#X obj 558 355 spigot;
#X msg 501 393 set 0;
#X obj 550 624 spigot;
#X obj 635 633 spigot;
#X obj 667 610 == 0;
#X obj 566 689 outlet longPressed;
#X obj 759 662 outlet doubleLongPressed;
#X obj 593 300 del 250;
#X obj 140 342 del 250;
#X obj 284 583 < 250;
#X obj 720 455 inlet;
#X obj 720 476 route doubleClickTime longPressTime;
#X obj 19 663 outlet clicked;
#X obj 262 676 outlet doubleClicked;
#X msg 452 640 0;
#X obj 182 479 spigot 1;
#X obj 182 443 t b b;
#X msg 144 460 1;
#X connect 0 0 1 0;
#X connect 1 0 4 0;
#X connect 1 0 2 0;
#X connect 1 1 3 0;
#X connect 1 1 4 1;
#X connect 2 0 5 0;
#X connect 2 0 15 0;
#X connect 2 0 9 0;
#X connect 3 0 2 1;
#X connect 4 0 5 0;
#X connect 4 0 10 0;
#X connect 4 0 14 0;
#X connect 4 0 16 1;
#X connect 5 0 6 0;
#X connect 6 0 7 1;
#X connect 7 0 8 0;
#X connect 7 0 11 0;
#X connect 8 0 32 0;
#X connect 9 0 24 0;
#X connect 10 0 24 0;
#X connect 11 0 28 0;
#X connect 12 0 11 1;
#X connect 13 0 25 0;
#X connect 14 0 13 1;
#X connect 14 0 13 0;
#X connect 14 0 23 0;
#X connect 15 0 23 0;
#X connect 16 0 17 0;
#X connect 16 0 19 0;
#X connect 16 0 18 0;
#X connect 17 0 5 0;
#X connect 18 0 22 0;
#X connect 18 0 30 0;
#X connect 19 0 21 0;
#X connect 19 0 30 0;
#X connect 20 0 19 1;
#X connect 23 0 16 0;
#X connect 24 0 7 0;
#X connect 25 0 8 1;
#X connect 25 0 12 0;
#X connect 25 0 18 1;
#X connect 25 0 20 0;
#X connect 26 0 27 0;
#X connect 27 0 10 0;
#X connect 27 0 25 1;
#X connect 27 1 23 1;
#X connect 30 0 31 1;
#X connect 31 0 29 0;
#X connect 32 0 33 0;
#X connect 32 1 31 0;
#X connect 33 0 31 1;
