#N canvas 538 72 450 300 10;
#X obj 58 171 f;
#X obj 58 74 t b f;
#X obj 58 93 f;
#X obj 82 93 + 1;
#X obj 58 54 inlet;
#X obj 58 191 outlet;
#X msg 97 73 0;
#X obj 58 132 sel 0;
#X obj 58 113 > 0;
#X obj 97 211 outlet;
#X obj 97 152 t b;
#X obj 97 54 inlet;
#X text 170 125 abstraction for [oncedom];
#X connect 0 0 5 0;
#X connect 1 0 2 0;
#X connect 1 1 0 1;
#X connect 2 0 3 0;
#X connect 2 0 8 0;
#X connect 3 0 2 1;
#X connect 4 0 1 0;
#X connect 6 0 2 1;
#X connect 7 0 0 0;
#X connect 7 1 10 0;
#X connect 8 0 7 0;
#X connect 10 0 9 0;
#X connect 11 0 6 0;
