#N struct 2501-symarray float x array symbols 2501-sym;
#N struct 2501-sym symbol name float on;
#N canvas 827 239 527 327 12;
#X obj 155 294 namecanvas \$0-Inst;
#X obj 43 366 r program;
#X obj 377 239 vanillaMenu \$0-Inst program 30 30 250 15 Acoustic_Grand_Piano Bright_Acoustic_Piano Electric_Grand_Piano Honky-Tonk_Piano Electric_Piano_1 Electric_Piano_2 Harpsichord Clavinet Celesta Glockenspiel Music_Box Vibraphone Marimba Xylophone Tubular_Bells Dulcimer Drawbar_Organ Percussive_Organ Rock_Organ Church_Organ Reed_Organ Accordian Harmonica Tango_Accordian Acoustic_Guitar_Nylon Acoustic_Guitar_Steel Electric_Guitar_Jazz Electric_Guitar_Clean Electric_Guitar_Muted Overdriven_Guitar Distortion_Guitar Guitar_Harmonics Acoustic_Bass Electric_Bass_Finger Electric_Bass_Pick Fretless_Bass Slap_Bass_1 Slap_Bass_2 Synth_Bass_1 Synth_Bass_2 Violin Viola Cello Contrabass Tremolo_Strings Pizzicato_Strings Orchestral_Harp Timpani String_Ensemble_1 String_Ensemble_2 Synth_Strings_1 Synth_Strings_2 Choir_Aahs Choir_Oohs Synth_Voice Orchestra_Hit Trumpet Trombone Tuba Muted_Trumpet French_Horn Brass_Section Synth_Brass_1 Synth_Brass_2 Soprano_Sax Alto_Sax Tenor_Sax Baritone_Sax Oboe English_Horn Bassoon Clarinet Piccolo Flute Recorder Pan_Flute Blown_Bottle Shakuhachi Whistle Ocarina Synth_Lead_Square Synth_Lead_Saw Synth_Lead_Calliope Synth_Lead_Chiff Synth_Lead_Charang Synth_Lead_Voice Synth_Lead_Fifths Synth_Lead_Bass Synth_Pad_NewAge Synth_Pad_Warm Synth_Pad_Polysynth Synth_Pad_Choir Synth_Pad_Bowed Synth_Pad_Metallic Synth_Pad_Halo Synth_Pad_Sweep FX_Rain FX_Soundtrack FX_Crystal FX_Atmosphere FX_Brightness FX_Goblins FX_Echoes FX_SciFi Sitar Banjo Shamisen Koto Kalimba Bag_Pipes Fiddle Shanai Tinkle_Bell Agogo Steel_Drums Woodblock Taiko_Drum Melodic_Tom Synth_Drum Reverse_Cymbal Guitar_Fret_Noise Breath_Noise Seashore Bird_Tweet Telephone_Ring Helicopter Applause Gunshot;
#X obj 270 30 vsl 8 2 0 127 0 0 program-1_s program-1_r x 3 3 0 4 #d9d9d9 #d9d9d9 #606060 0 0;
#X obj 270 30 vsl 8 2 0 127 0 0 program-2_s program-2_r x 3 3 0 4 #d9d9d9 #d9d9d9 #606060 0 0;
#X obj 270 30 vsl 8 2 0 127 0 0 program-3_s program-3_r x 3 3 0 4 #d9d9d9 #d9d9d9 #606060 0 0;
#X obj 270 30 vsl 8 2 0 127 0 0 program-4_s program-4_r x 3 3 0 4 #d9d9d9 #d9d9d9 #606060 0 0;
#X obj 270 30 vsl 8 2 0 127 0 0 program-5_s program-5_r x 3 3 0 4 #d9d9d9 #d9d9d9 #606060 0 0;
#X obj 270 30 vsl 8 2 0 127 0 0 program-6_s program-6_r x 3 3 0 4 #d9d9d9 #d9d9d9 #606060 0 0;
#X obj 270 30 vsl 8 2 0 127 0 0 program-7_s program-7_r x 3 3 0 4 #d9d9d9 #d9d9d9 #606060 0 0;
#X obj 270 30 vsl 8 2 0 127 0 0 program-8_s program-8_r x 3 3 0 4 #d9d9d9 #d9d9d9 #606060 0 0;
#X obj 270 30 vsl 8 2 0 127 0 0 program-9_s program-9_r x 3 3 0 4 #d9d9d9 #d9d9d9 #606060 0 0;
#X obj 270 30 vsl 8 2 0 127 0 0 program-10_s program-10_r x 3 3 0 4 #d9d9d9 #d9d9d9 #606060 0 0;
#X obj 270 30 vsl 8 2 1 0 0 1 program_scroll_s program_scroll_r empty 0 -9 0 10 #dcdcdc #dfdfdf #000000 100 0;
#X obj 270 30 cnv 9 1 1 empty program_scrollIndicator empty 20 12 0 14 #bbbbbb #404040 0;
#X obj 30 30 vsl 250 15 0 127 0 0 program_s program_r program 5 7 0 14 #ffffff #fcfcfc #000000 0 0;
#X obj 43 392 unpack f s;
#X obj 43 418 outlet;
#X obj 376 43 inlet;
#X obj 376 69 route float;
#X connect 1 0 16 0;
#X connect 16 0 17 0;
#X connect 18 0 19 0;
#X connect 19 0 2 0;
#X coords 0 0 1 1 279 229 1 25 24;
