#N struct 1009-f float x;
#N canvas 121 146 1145 339 12;
#X declare -path list-abs;
#X obj 45 61 m2chordscale;
#X obj 45 10 notein;
#X obj 45 34 pack f f;
#X text 191 92 chord name;
#X text 232 124 scale;
#X text 273 154 simultanously held notes;
#X listbox 45 92 20 0 0 0 - - - 0;
#X listbox 85 123 20 0 0 0 - - - 0;
#X listbox 124 155 20 0 0 0 - - - 0;
#X text 478 26 takes midi notein messages and outputs chordnames \, scale and simultanously held notes.;
#X text 478 126 inlet: pitch/velocity pair as list.;
#X text 478 154 outles:;
#X text 478 190 1 chord name message;
#X text 478 264 3 simultanously held incoming notes also moduloe'd down;
#X text 490 233 moduloe'd down to 0 (c) - 11 (b);
#X text 478 216 2 scale as list of midi pitches \,;
#X text 478 298 2024 @reinissance;
#X text 478 72 requires: https://github.com/pd-externals/list-abs;
#X obj 242 23 declare -path list-abs;
#X connect 0 0 6 0;
#X connect 0 1 7 0;
#X connect 0 2 8 0;
#X connect 1 0 2 0;
#X connect 1 1 2 1;
#X connect 2 0 0 0;
