#N canvas 813 87 979 677 10;
#X obj 147 81 outlet;
#X obj 20 23 inlet;
#N canvas 775 37 1017 591 Making 0;
#X obj 105 33 \$1;
#X obj 105 84 until;
#X msg 198 18 2;
#X obj 105 104 f;
#X obj 133 104 + 1;
#X msg 164 93 0;
#X obj 582 156 f;
#X obj 607 156 + 1;
#X msg 575 223 obj 20 100 route 0 1 2 3 4;
#X obj 577 112 until;
#X msg 622 135 0;
#X msg 579 180 add2 \$1;
#X msg 697 173 set obj 20 100 route;
#X obj 593 254 s \$0Dom;
#X obj 105 56 t f b f;
#X obj 144 156 expr $f1*20+120;
#X obj 130 187 expr $f1*20+20;
#X obj 105 13 loadbang;
#X obj 551 73 t b b f b;
#X obj 105 127 t f f f;
#X obj 105 264 pack f f f \$0 f;
#X obj 307 30 inlet;
#X obj 192 242 + 10;
#X msg 518 203 connect 4 0 9 0;
#X msg 115 338 \; \$4Dom obj \$2 \$3 fonce \; \$4Dom connect 9 \$1 \$5 0 \; \$4Dom connect \$5 0 5 0 \; \$4Dom connect \$5 1 4 0 \; \$4Dom connect 6 0 \$5 1;
#X connect 0 0 14 0;
#X connect 1 0 3 0;
#X connect 2 0 14 0;
#X connect 3 0 4 0;
#X connect 3 0 19 0;
#X connect 4 0 3 1;
#X connect 5 0 3 1;
#X connect 6 0 7 0;
#X connect 6 0 11 0;
#X connect 7 0 6 1;
#X connect 8 0 13 0;
#X connect 9 0 6 0;
#X connect 10 0 6 1;
#X connect 11 0 8 0;
#X connect 12 0 8 0;
#X connect 14 0 1 0;
#X connect 14 1 5 0;
#X connect 14 2 18 0;
#X connect 15 0 20 2;
#X connect 16 0 20 1;
#X connect 17 0 0 0;
#X connect 18 0 23 0;
#X connect 18 1 8 0;
#X connect 18 2 9 0;
#X connect 18 3 12 0;
#X connect 18 3 10 0;
#X connect 19 0 20 0;
#X connect 19 1 15 0;
#X connect 19 1 16 0;
#X connect 19 2 22 0;
#X connect 20 0 24 0;
#X connect 21 0 14 0;
#X connect 22 0 20 4;
#X connect 23 0 13 0;
#X restore 407 56 pd Making;
#X obj 627 46 namecanvas \$0Dom;
#N canvas 111 306 450 300 DomDom 0;
#X obj 177 84 \$1;
#X obj 177 65 loadbang;
#X msg 36 122 \$1 \$1;
#X obj 36 180 outlet;
#X obj 36 2 inlet;
#X msg 36 75 bang;
#X obj 35 26 route reset;
#X obj 98 78 s \$0reset;
#X msg 97 53 bang;
#X obj 36 101 random 4;
#X obj 210 98 inlet;
#X obj 110 124 r seed;
#X obj 169 167 print \$0-seed;
#X msg 111 169 seed \$1;
#X obj 111 145 / \$0;
#X connect 0 0 9 1;
#X connect 1 0 0 0;
#X connect 2 0 3 0;
#X connect 4 0 6 0;
#X connect 5 0 9 0;
#X connect 6 0 8 0;
#X connect 6 1 5 0;
#X connect 8 0 7 0;
#X connect 9 0 2 0;
#X connect 10 0 9 1;
#X connect 11 0 14 0;
#X connect 13 0 9 0;
#X connect 14 0 12 0;
#X connect 14 0 13 0;
#X restore 20 52 pd DomDom;
#X obj 120 59 t b f;
#N canvas 15 378 450 300 seq 0;
#X obj 77 68 inlet;
#X obj 82 146 f;
#X obj 109 146 + 1;
#X msg 177 165 0;
#X obj 96 95 sel 4;
#X obj 182 100 \$1;
#X obj 167 47 loadbang;
#X obj 176 186 outlet;
#X obj 268 148 r \$0reset;
#X obj 268 53 inlet;
#X connect 0 0 1 0;
#X connect 1 0 2 0;
#X connect 2 0 1 1;
#X connect 2 0 4 0;
#X connect 3 0 7 0;
#X connect 3 0 1 1;
#X connect 4 0 3 0;
#X connect 5 0 4 1;
#X connect 6 0 5 0;
#X connect 8 0 3 0;
#X connect 9 0 4 1;
#X restore 245 74 pd seq;
#X obj 407 16 inlet;
#N canvas 243 103 534 476 new 0;
#X obj 37 6 inlet;
#X obj 198 224 f \$1;
#X obj 198 264 * 120;
#X obj 198 244 + 1;
#X obj 141 286 pack \$0 \$1 20;
#X obj 248 264 * 20;
#X obj 53 106 outlet;
#X msg 141 306 \; \$1Dom vis 1 \; \$1Dom editmode 1 \; \$1Dom vis 1 \; \$1Dom mouse 10 100 1 0 \; \$1Dom mouseup \$3 \$2 0 \; \$1Dom key 1 8 0 \; \$1Dom editmode 0 \; \$1Dom vis 0 \;;
#X obj 37 26 t b f b b;
#X msg 37 47 reset;
#X obj 37 68 outlet reset;
#X connect 0 0 8 0;
#X connect 1 0 3 0;
#X connect 2 0 4 1;
#X connect 3 0 2 0;
#X connect 3 0 5 0;
#X connect 4 0 7 0;
#X connect 5 0 4 2;
#X connect 8 0 9 0;
#X connect 8 1 1 1;
#X connect 8 1 6 0;
#X connect 8 2 4 0;
#X connect 8 3 1 0;
#X connect 9 0 10 0;
#X restore 407 36 pd new;
#X connect 1 0 4 0;
#X connect 5 0 6 0;
#X connect 5 1 0 0;
#X connect 7 0 8 0;
#X connect 8 0 4 0;
#X connect 8 1 2 0;
#X connect 8 1 6 1;
#X connect 8 1 4 1;
