#N canvas 693 39 935 667 12;
#X obj 289 414 print;
#X msg 187 371 reset;
#X obj 359 339 hsl 162 19 0 127 0 0 empty empty empty -2 -10 0 12 #fcfcfc #000000 #000000 0 1;
#X text 354 304 uses dynamic patching so better don't do this...;
#X msg 406 412 100;
#X text 405 388 ... but this:;
#X text 252 146 like random \, but each number in range occurs only once until all have been there.;
#X obj 288 325 bng 19 250 50 0 empty empty empty 0 -10 0 12 #fcfcfc #000000 #000000;
#X msg 406 442 5;
#X msg 405 542 1000;
#X obj 289 384 oncedom 12;
#X text 404 483 And be aware of possible audio dropouts... Finally: keep away from high ranges!;
#X connect 1 0 10 0;
#X connect 2 0 10 1;
#X connect 4 0 10 1;
#X connect 7 0 10 0;
#X connect 8 0 10 1;
#X connect 9 0 10 1;
#X connect 10 0 0 0;
