#N struct 2479-symarray float x array symbols 2479-sym;
#N struct 2479-sym symbol name float on;
#N canvas 424 354 1465 840 12;
#X obj 195 270 tgl 15 0 empty empty empty 17 7 0 10 #fcfcfc #000000 #000000 0 1;
#X obj 195 297 sel 1 0;
#N canvas 422 68 1369 913 unfold 0;
#X obj 37 67 inlet;
#X obj 37 516 until;
#X obj 37 539 f 1;
#X obj 67 539 + 1;
#X msg 81 500 1;
#X obj 37 562 t f f;
#X obj 110 552 + 30;
#X msg 503 394 dump;
#X obj 37 90 t b b b, f 13;
#X obj 683 206 f 1;
#X obj 713 206 + 1;
#X obj 421 224 f;
#X obj 671 179 t a b;
#X msg 739 413 1;
#X obj 37 495 f 1;
#X obj 421 476 sel 0;
#X msg 384 476 1;
#X obj 671 233 unpack f s, f 15;
#X obj 671 413 + 1;
#X obj 671 439 moses 11;
#X obj 465 476 moses 11;
#X msg 532 476 10;
#X msg 503 76 reset;
#X obj 721 179 f 1;
#X obj 420 108 t b b b b, f 36;
#X obj 671 463 moses 1;
#X obj 914 272 *;
#X obj 914 296 i;
#X obj 914 320 change;
#X obj 914 377 t b f;
#X obj 946 403 * -1;
#N canvas 92 117 999 534 symbolarray 0;
#X text 615 31 Data structures:;
#X text 614 156 This gets saves with the patch \, if needed;
#N canvas 0 0 529 303 \$0-sym 0;
#X text 75 124 Just a symbol \, which will store a symbolc called name. Intended to be used as array elements in symarray.;
#X obj 143 82 struct \$0-sym symbol name float on;
#X restore 616 58 pd \$0-sym;
#N canvas 312 519 836 304 \$0-symarray 0;
#X obj 138 64 struct \$0-symarray float x array symbols \$0-sym;
#X obj 142 183 drawpolygon 900 1 0 0 0 10 10 10 10 0 0 0;
#X text 119 159 Just something to click on and open the builtinn editor.;
#X text 122 109 The interesting bit here is the "symbols" array which stores an array of "\$0-sym" items that in turn have "name"s;
#X restore 616 82 pd \$0-symarray;
#N canvas 0 0 450 300 \$0-data 0;
#X scalar 2479-symarray 0 \; First 1 \; Second 1 \; Third 1 \; \;;
#X restore 617 133 pd \$0-data;
#X obj 447 335 r \$0-symarray-p;
#X obj 261 360 element \$0-symarray symbols;
#N canvas 0 0 619 485 init 0;
#X obj 213 251 pointer;
#X obj 76 325 pointer;
#X msg 89 305 bang;
#X msg 227 143 clear;
#X msg 76 249 0;
#X text 131 304 resend;
#X msg 213 226 traverse \$1 \, bang;
#X obj 213 198 symbol pd-\$0-data;
#X obj 76 275 append \$0-symarray x;
#X obj 76 345 s \$0-symarray-p;
#X obj 76 30 loadbang;
#X obj 227 167 s pd-\$0-data;
#X obj 76 83 t b b b;
#X text 274 254 where to create? In [pd \$0-data]!;
#X obj 88 54 r \$0-reset;
#X connect 0 0 8 1;
#X connect 1 0 9 0;
#X connect 2 0 1 0;
#X connect 3 0 11 0;
#X connect 4 0 8 0;
#X connect 6 0 0 0;
#X connect 7 0 6 0;
#X connect 8 0 1 0;
#X connect 10 0 12 0;
#X connect 12 0 4 0;
#X connect 12 1 7 0;
#X connect 12 2 3 0;
#X connect 14 0 12 0;
#X restore 494 56 pd init;
#X obj 61 54 inlet;
#X obj 320 50 inlet;
#X obj 61 194 list trim;
#X obj 61 342 s \$0-reset;
#X text 59 23 lookup data by index;
#X text 252 24 add data. syntax: <index> <symbol to store>;
#N canvas 416 246 542 307 change-size 0;
#X obj 98 158 max;
#X obj 131 158 f;
#X obj 98 25 inlet;
#X obj 98 218 setsize \$0-symarray symbols;
#X obj 284 191 r \$0-symarray-p;
#X obj 98 189 change -1;
#X obj 116 79 r \$0-reset;
#X obj 116 99 t b b;
#X msg 167 160 set -1;
#X obj 98 51 + 1;
#X msg 116 120 0;
#X obj 61 251 s \$0-size;
#X connect 0 0 1 0;
#X connect 0 0 5 0;
#X connect 1 0 0 1;
#X connect 2 0 9 0;
#X connect 4 0 3 1;
#X connect 5 0 3 0;
#X connect 5 0 11 0;
#X connect 6 0 7 0;
#X connect 7 0 10 0;
#X connect 7 1 8 0;
#X connect 8 0 5 0;
#X connect 9 0 0 0;
#X connect 10 0 0 1;
#X restore 384 184 pd change-size;
#X obj 320 154 t b f f;
#N canvas 0 0 611 287 set-symbol 0;
#X obj 91 44 inlet;
#X obj 249 60 inlet;
#X obj 435 97 r \$0-symarray-p;
#X obj 249 119 element \$0-symarray symbols;
#X obj 91 151 set -symbol \$0-sym name;
#X obj 123 216 set \$0-sym on;
#X obj 91 102 t a b;
#X msg 123 193 1;
#X connect 0 0 6 0;
#X connect 1 0 3 0;
#X connect 2 0 3 1;
#X connect 3 0 4 1;
#X connect 3 0 5 1;
#X connect 6 0 4 0;
#X connect 6 1 7 0;
#X connect 7 0 5 0;
#X restore 320 233 pd set-symbol;
#X obj 261 437 outlet;
#X obj 320 109 list split 1;
#X obj 320 186 list;
#X msg 494 81 clear;
#X obj 494 105 s pd-\$0-data;
#N canvas 0 25 581 539 print 0;
#X obj 64 205 max;
#X obj 64 27 inlet;
#X obj 64 230 until;
#X obj 64 266 f;
#X obj 97 264 + 1;
#X msg 112 231 0;
#X obj 303 296 r \$0-symarray-p;
#X obj 117 321 element \$0-symarray symbols;
#X obj 64 290 t f f;
#X obj 265 146 print -n;
#X obj 265 103 symbol \$0-symarray;
#X msg 265 124 --------- symbolarray: \$1 contents ---;
#X obj 64 439 print -n;
#X obj 110 108 r \$0-symarray-p;
#X obj 64 151 getsize \$0-symarray symbols;
#X obj 64 131 pointer;
#X obj 64 65 t b b;
#X obj 64 178 t a b;
#X obj 117 349 get \$0-sym name on;
#X obj 64 411 pack 0 s 0;
#X connect 0 0 2 0;
#X connect 1 0 16 0;
#X connect 2 0 3 0;
#X connect 3 0 4 0;
#X connect 3 0 8 0;
#X connect 4 0 3 1;
#X connect 5 0 3 1;
#X connect 6 0 7 1;
#X connect 7 0 18 0;
#X connect 8 0 19 0;
#X connect 8 1 7 0;
#X connect 10 0 11 0;
#X connect 11 0 9 0;
#X connect 13 0 15 1;
#X connect 14 0 17 0;
#X connect 15 0 14 0;
#X connect 16 0 15 0;
#X connect 16 1 10 0;
#X connect 17 0 0 0;
#X connect 17 1 5 0;
#X connect 18 0 19 1;
#X connect 18 1 19 2;
#X connect 19 0 12 0;
#X restore 111 321 pd print;
#X text 614 112 Here we create our symbolarray;
#X obj 320 211 route symbol;
#X obj 320 86 list split 2;
#N canvas 228 198 627 317 LICENSE-BSD 0;
#X text 121 56 This software is copyrighted by Miller Puckette \, Reality Jockey Ltd. and others. The terms (the "Standard Improved BSD License") apply to all files associated with the software unless explicitly disclaimed in individual files.;
#X text 123 148 See the file LICENSE.txt for the full license text.;
#X restore 605 296 pd LICENSE-BSD;
#X obj 261 382 get \$0-sym name on;
#X obj 261 412 spigot;
#N canvas 184 84 581 539 dump 0;
#X obj 64 205 max;
#X obj 64 27 inlet;
#X obj 64 230 until;
#X obj 64 266 f;
#X obj 97 264 + 1;
#X msg 112 231 0;
#X obj 303 296 r \$0-symarray-p;
#X obj 117 321 element \$0-symarray symbols;
#X obj 64 290 t f f;
#X obj 110 108 r \$0-symarray-p;
#X obj 64 151 getsize \$0-symarray symbols;
#X obj 64 131 pointer;
#X obj 64 65 t b b;
#X obj 64 178 t a b;
#X obj 117 349 get \$0-sym name on;
#X obj 64 479 outlet;
#X obj 64 455 spigot;
#X obj 64 411 pack 0 s;
#X connect 0 0 2 0;
#X connect 1 0 12 0;
#X connect 2 0 3 0;
#X connect 3 0 4 0;
#X connect 3 0 8 0;
#X connect 4 0 3 1;
#X connect 5 0 3 1;
#X connect 6 0 7 1;
#X connect 7 0 14 0;
#X connect 8 0 17 0;
#X connect 8 1 7 0;
#X connect 9 0 11 1;
#X connect 10 0 13 0;
#X connect 11 0 10 0;
#X connect 12 0 11 0;
#X connect 13 0 0 0;
#X connect 13 1 5 0;
#X connect 14 0 17 1;
#X connect 14 1 16 1;
#X connect 16 0 15 0;
#X connect 17 0 16 0;
#X restore 161 283 pd dump;
#X obj 503 429 outlet;
#X obj 61 221 route reset print dump delete;
#N canvas 0 0 487 317 del 0;
#X obj 261 87 r \$0-symarray-p;
#X obj 75 112 element \$0-symarray symbols;
#X obj 75 175 set \$0-sym on;
#X obj 75 141 list prepend 0;
#X obj 75 88 f;
#X obj 75 62 inlet;
#X connect 0 0 1 1;
#X connect 1 0 3 0;
#X connect 3 0 2 0;
#X connect 4 0 1 0;
#X connect 5 0 4 0;
#X restore 211 243 pd del;
#X obj 314 256 r \$0-size;
#X floatatom 314 282 5 0 0 0 - - - 0;
#X obj 261 283 moses;
#X obj 261 258 f;
#X text 603 274 subpatch copy/pasted from the rj library in pdparty;
#X connect 5 0 6 1;
#X connect 6 0 27 0;
#X connect 8 0 10 0;
#X connect 9 0 25 0;
#X connect 10 0 31 0;
#X connect 15 0 19 0;
#X connect 15 1 16 1;
#X connect 15 2 14 0;
#X connect 18 0 15 0;
#X connect 18 1 19 1;
#X connect 18 2 19 1;
#X connect 19 0 24 0;
#X connect 20 0 21 0;
#X connect 24 0 16 0;
#X connect 25 0 18 0;
#X connect 27 0 28 0;
#X connect 27 1 28 1;
#X connect 28 0 17 0;
#X connect 29 0 30 0;
#X connect 31 0 11 0;
#X connect 31 1 22 0;
#X connect 31 2 29 0;
#X connect 31 3 32 0;
#X connect 31 4 36 0;
#X connect 33 0 35 1;
#X connect 33 0 34 0;
#X connect 35 0 6 0;
#X connect 36 0 35 0;
#X restore 503 153 pd symbolarray;
#X msg 305 156 0;
#X msg 305 186 1;
#X msg 305 216 2;
#X msg 305 246 3;
#X msg 305 276 4;
#X msg 305 306 5;
#X msg 305 336 6;
#X msg 305 366 7;
#X msg 305 396 8;
#X msg 305 426 9;
#X obj 503 235 outlet;
#X msg 353 108 set -1;
#X obj 914 353 - 1;
#X obj 356 339 + 0;
#X msg 459 131 0;
#X obj 110 529 * 18;
#X obj 518 556 i;
#X obj 518 507 - 9;
#X obj 826 567 r \$2-Arg;
#X obj 717 491 pack f s s, f 16;
#X msg 717 517 \; \$3-\$1_r label \$2;
#X obj 503 3 r \$2-Array;
#X obj 178 138 r \$2-1_s;
#X obj 178 168 r \$2-2_s;
#X obj 178 198 r \$2-3_s;
#X obj 178 228 r \$2-4_s;
#X obj 178 258 r \$2-5_s;
#X obj 178 288 r \$2-6_s;
#X obj 178 318 r \$2-7_s;
#X obj 178 348 r \$2-8_s;
#X obj 178 378 r \$2-9_s;
#X obj 178 408 r \$2-10_s;
#X obj 914 248 r \$2_scroll_s;
#X obj 357 401 t f f;
#X msg 384 176 set \$1 \, adddollar 1;
#X msg 503 199 0 \$1;
#X obj 1075 411 r \$2-width;
#X obj 914 585 pack f s f;
#X obj 1082 489 +;
#X obj 1082 513 + 3;
#X msg 914 624 \; \$2_scrollIndicator pos \$3 \$1 \;;
#X obj 84 722 r \$2-xPos;
#X obj 439 532 r \$2-yPos;
#X obj 166 722 r \$2-width;
#X obj 283 741 +;
#X obj 283 567 + 3;
#X obj 439 567 + 1;
#X obj 1101 446 r \$2-xPos;
#X obj 914 556 expr $f1*$f2+$f3+1;
#X obj 601 52 moses 0;
#X msg 802 160 0 x;
#X obj 803 89 t b b;
#X obj 845 114 s \$2-fold;
#X obj 145 472 r \$2-height;
#X obj 135 507 + 5;
#X obj 518 532 expr $f2/$f1;
#X obj 518 586 pack f s f f f f 193;
#X msg 518 683 \; \$2_scroll_r pos \$3 \$4 \; \$2_scroll_r size 15 \$7 \; \$2_scrollIndicator pos \$5 \$6 \; \$2_scrollIndicator vis_size 9 \$1 \;;
#X obj 825 253 - 8.01;
#X obj 354 567 - 5;
#X obj 354 526 * 11;
#X obj 37 586 pack f f s f f 13 12 8;
#X obj 189 544 expr $f1-$f1/2;
#X obj 202 586 pack f f s;
#X msg 229 616 \; \$3_r label_font 0 \$1 \; \$3_r label_pos 3 \$2;
#X obj 166 522 - 3;
#X msg 37 633 \; \$3-\$1_r pos \$4 \$2 \; \$3-\$1_r size \$5 \$6 \; \$3-\$1_r label_font 0 \$7 \; \$3-\$1_r label_pos 5 \$8;
#X obj 581 272 symbol \$2;
#X obj 541 250 t s b;
#X obj 541 294 pack s s;
#X msg 541 322 \; \$2_r label \$2:\$1;
#X obj 353 134 change -1;
#X obj 636 81 - 0;
#X msg 368 51 0;
#X obj 597 177 spigot 1;
#X obj 1005 51 inlet symbol;
#X msg 651 145 1;
#X msg 691 145 0;
#X msg 1235 104 1;
#X msg 1270 145 0;
#X obj 1183 172 spigot;
#X msg 1175 134 dump;
#X obj 1059 126 t b b s b;
#X obj 1183 196 t a a;
#X obj 1183 220 spigot;
#X obj 1256 197 select [dummy];
#X msg 1277 223 1;
#X msg 1324 226 0;
#X obj 1267 170 unpack f s;
#X obj 1183 244 unpack f s;
#X obj 568 206 spigot;
#X obj 582 249 outlet dump;
#X msg 637 203 1;
#X msg 659 256 0;
#X obj 1005 82 route dump;
#X obj 540 -114 route reset list float bang;
#X obj 987 121 t b b b;
#X msg 614 230 0;
#X connect 0 0 8 0 32.................B.........f..........P.....;
#X connect 1 0 2 0 32.................B.........f..........P.....;
#X connect 2 0 3 0 48......................7..........O....39+++uG....t++++6A...f6++++;
#X connect 2 0 5 0 32.................B.........f..........P.....;
#X connect 3 0 2 1 48......................b++++O.....2++++69+++u6++++t++++69+++u6++++;
#X connect 4 0 2 1 32.................J....L9+++uB....i++++SA....;
#X connect 5 0 93 0 32.................C.........v..........T.....;
#X connect 5 1 47 0 48......................7A.........e....z7+++uO....M++++6C...Py++++;
#X connect 6 0 93 1 32.................H....j7+++OB....I+++++.....;
#X connect 7 0 31 0 48......................................zu+++O.....86+++C....P+9+++;
#X connect 8 0 14 0 32.................AC........Pv.........HX....;
#X connect 8 1 4 0 32.................DC...f.....w....H....bX....;
#X connect 8 2 24 0 32......................zS.........8D.........;
#X connect 8 2 43 0 48......................zG.........8A........f9.........nO.........;
#X connect 9 0 10 0 48......................7..........O....39+++uG....t++++6A...f6++++;
#X connect 9 0 11 1 48.......................y+++O.....v7+++C....fA++++.....Xv+++O.....;
#X connect 10 0 9 1 48......................b++++O.....2++++69+++u6++++t++++69+++u6++++;
#X connect 11 0 15 0 32.................0A........Pc.........jN....;
#X connect 12 0 17 0 32.................R.........fD.........LB....;
#X connect 12 1 9 0 32.................D..........A.........f.....;
#X connect 13 0 23 1 48......................7++++O.....+++++Sv+++e+++++D7+++2++++OA++++;
#X connect 13 0 18 1 48......................X9+++O.....l++++69++++x++++t++++u7+++u6++++;
#X connect 14 0 1 0 32.................A.........P..........H.....;
#X connect 15 0 16 0 48......................z9+++O.....s++++69+++e1++++t++++m8+++u6++++;
#X connect 15 1 20 0 48......................7..........O....39+++eG....t++++2A...f6++++;
#X connect 16 0 14 1 32......................Pq+++O.....z5+++C.....;
#X connect 16 0 11 1 48......................nA.........Z....Hu++++L....x6+++OC...f79+++;
#X connect 17 0 18 0 32.................QA........PT.........DJ....;
#X connect 17 0 90 0 32.................A....nI...P.....ZB...D.....;
#X connect 17 1 51 1 32.................3A...j.....d....I....7N....;
#X connect 18 0 19 0 32.................D..........A.........b.....;
#X connect 19 0 25 0 32.................C.........v..........T.....;
#X connect 20 0 14 1 32.......................l+++O.....f4+++C.....;
#X connect 20 1 21 0 48......................3..........N....39+++OG....t++++yA...f6++++;
#X connect 20 1 49 0 32.................F....3....fA....N....v.....;
#X connect 21 0 14 1 32......................zg+++O.....c3+++C.....;
#X connect 22 0 31 0 32.................c.........PG.........nC....;
#X connect 22 0 105 0 48......................L8+++O.....S++++W8+++Od++++U++++i2+++e0++++;
#X connect 23 0 9 1 32.................D....X9+++OA....l++++i.....;
#X connect 24 0 11 0 32.................w....D....PL....A....DF....;
#X connect 24 0 46 0 32.................B....TB...f.....k....P.....;
#X connect 24 1 7 0 32.................FB...X....fg....F....rP....;
#X connect 24 2 23 0 32.................Z....LI...fF....SB...PC....;
#X connect 24 3 13 0 32.................OB...TE...vi....UA...3Q....;
#X connect 25 1 51 0 32.................E....v....PA....L....j.....;
#X connect 26 0 27 0 32.................C.........v..........T.....;
#X connect 27 0 28 0 32.................C.........v..........T.....;
#X connect 28 0 44 0 32.................G.........vA.........3.....;
#X connect 28 0 45 1 32......................3c+++O.....d2+++C.....;
#X connect 28 0 80 0 32.................sA........Pa.........jM....;
#X connect 28 0 104 1 32.................+6+++au+++++9+++16++++u+++O;
#X connect 29 0 7 0 48......................f2+++O.....38++++++++uY9++++++++al+++++++++;
#X connect 29 1 30 0 32.................D....TA....A....U....b.....;
#X connect 30 0 18 1 32......................ju+++O.....46+++i++++O;
#X connect 31 0 67 0 32.................N.........fC.........rA....;
#X connect 31 0 100 0 32.................m....XB...vI....l....3D....;
#X connect 31 1 106 0 32.................C.....A...v.....P....T.....;
#X connect 31 1 112 0 32......................nk.........ZI.........;
#X connect 31 1 122 0 32.................Q....P++++eD....z++++KB....;
#X connect 32 0 103 0 48......................jA.........Y....f8+++uL....X++++KC....1++++;
#X connect 33 0 103 0 48......................nA.........Z....n6++++L....59+++OC...ft++++;
#X connect 34 0 103 0 48......................jA.........Y....v4+++uL....b9+++KC....m++++;
#X connect 35 0 103 0 48......................jA.........Y....32+++uL....98+++KC...fe++++;
#X connect 36 0 103 0 48......................jA.........Y.....1+++uL....f8+++KC....X++++;
#X connect 37 0 103 0 48......................jA.........Y....Hz+++uL....B8+++KC...fP++++;
#X connect 38 0 103 0 48......................jA.........Y....Px+++uL....j7+++KC....I++++;
#X connect 39 0 103 0 48......................jA.........Y....Xv+++uL....F7+++KC...fA++++;
#X connect 40 0 103 0 48......................jA.........Y....ft+++uL....n6+++KC....59+++;
#X connect 41 0 103 0 48......................jA.........Y....nr+++uL....J6+++KC...fx9+++;
#X connect 43 0 103 0 32.................D..........A.........b.....;
#X connect 44 0 29 0 32.................C.........v..........T.....;
#X connect 45 0 65 0 32.................V....D....fE....A....rB....;
#X connect 46 0 45 1 32.................+....b5++++O....m9+++2K....;
#X connect 46 0 104 1 48......................7E.........eA...v6+++uu....79+++6K....u++++;
#X connect 47 0 6 0 32.................B.........f..........P.....;
#X connect 48 0 88 0 32.................F.........fA.........r.....;
#X connect 49 0 87 0 32.................C.........v..........X.....;
#X connect 50 0 51 2 48......................f++++O.....3++++K5+++O7++++h9+++C++++un++++;
#X connect 50 0 69 1 48......................PB.........j..........a.........vF.........;
#X connect 50 0 88 1 32......................zs+++O.....c6+++C.....;
#X connect 50 0 93 2 32......................3P+++O.....Nz+++C.....;
#X connect 50 0 95 2 32......................na+++O.....51+++C.....;
#X connect 51 0 52 0 32.................D..........A.........b.....;
#X connect 53 0 127 0 48......................LA.........S....j2+++eI....48+++WB...Pd++++;
#X connect 54 0 32 0 48......................nB.........p.........Pe.........zG.........;
#X connect 55 0 33 0 48......................3C.........9..........e.........vG.........;
#X connect 56 0 34 0 48......................nB.........p.........Pe.........zG.........;
#X connect 57 0 35 0 48......................nB.........p.........Pe.........zG.........;
#X connect 58 0 36 0 48......................nB.........p.........Pe.........zG.........;
#X connect 59 0 37 0 48......................nB.........p.........Pe.........zG.........;
#X connect 60 0 38 0 48......................nB.........p.........Pe.........zG.........;
#X connect 61 0 39 0 48......................nB.........p.........Pe.........zG.........;
#X connect 62 0 40 0 48......................nB.........p.........Pe.........zG.........;
#X connect 63 0 41 0 48......................nB.........p.........Pe.........zG.........;
#X connect 64 0 26 0 32.................C.........v..........T.....;
#X connect 65 0 31 0 48......................jD.........IA...Xu+++uj....16+++KI...f89+++;
#X connect 65 1 66 0 48......................f..........H....zv+++OD....M7+++CA...PC++++;
#X connect 66 0 67 0 32.................A....bG...P.....2A...P.....;
#X connect 67 0 42 0 32.................I.........PB.........DA....;
#X connect 68 0 70 0 32.................d....b....fG....G....rC....;
#X connect 69 0 72 0 32.................J.........fB.........PA....;
#X connect 70 0 71 0 32.................C.........v..........T.....;
#X connect 71 0 69 2 32.................a....H3++++F....B9+++WC....;
#X connect 73 0 76 1 32......................HM.........RC.........;
#X connect 73 0 93 3 48......................H..........B....X1+++OA....l8+++S....fY++++;
#X connect 74 0 6 1 32......................Xr+++O.....F6+++G.....;
#X connect 74 0 80 2 48.......................X..........F...H.....PB...B.....j...PA....;
#X connect 74 0 78 0 32.................H..........B..........A....;
#X connect 74 0 88 3 64.................F....rB...fA....q....v.....a....L....vF...vH....AB...LB...Pf....i.....;
#X connect 75 0 76 0 32......................TG.........0A.........;
#X connect 75 0 93 4 48......................H9+++O.....h++++a1+++Ow++++l8+++S7+++uY++++;
#X connect 76 0 77 0 48.......................................z+++O......8+++C.....P++++;
#X connect 76 0 88 2 64......................LG.........yA...v1++++u....r8++++K...vT++++LD...L0+++OCA...S8+++C;
#X connect 77 0 88 4 32......................3R.........tD.........;
#X connect 78 0 88 5 32......................LJ.........iB.........;
#X connect 79 0 70 1 32.................L....j++++OC....4++++iA....;
#X connect 80 0 69 0 32.................E.........PA.........n.....;
#X connect 81 1 104 0 32.................E.........PA.........n.....;
#X connect 82 0 12 0 32......................32+++O.....98+++C.....;
#X connect 83 0 82 0 32.................Z.........fF.........PC....;
#X connect 83 0 84 0 32.................C....nB...v.....p....X.....;
#X connect 83 1 24 0 32......................Tm+++O.....04+++C.....;
#X connect 85 0 86 0 32.................H....b++++OB....2++++CA....;
#X connect 85 0 93 5 32.................v....n9+++OL....p+++++E....;
#X connect 85 0 97 0 32.................P....TA....D....U....7A....;
#X connect 86 0 47 1 32.................B....L++++u.....y++++O.....;
#X connect 86 0 92 0 32......................rM.........aC.........;
#X connect 87 0 48 0 32.................C.........v..........T.....;
#X connect 87 0 80 1 48......................PW.........zE...H....fuA...B....3a...PA....;
#X connect 88 0 89 0 32.................m.........vI.........3D....;
#X connect 90 0 26 1 32......................PF.........jA.........;
#X connect 91 0 87 1 32......................3M.........dC...r7+++O;
#X connect 91 0 88 6 32......................jP.........ID.........;
#X connect 92 0 91 0 32.................K.........vB.........XA....;
#X connect 93 0 98 0 32.................N.........fC.........vA....;
#X connect 94 0 93 7 32.................L.....9+++OC....f++++eA....;
#X connect 94 0 95 1 32.................L....DB....C....g....bA....;
#X connect 95 0 96 0 32.................F....rA...fA....a....r.....;
#X connect 97 0 94 0 32.................B....bA...f.....W....L.....;
#X connect 97 0 93 6 32.................W....X9++++E....l++++2B....;
#X connect 97 0 95 0 32.................W....PB...vE....j....zB....;
#X connect 99 0 101 1 32.................B....v++++u.....7++++O.....;
#X connect 100 0 101 0 32.................M.........PC.........jA....;
#X connect 100 1 99 0 32.................B....vA...f.....b....L.....;
#X connect 101 0 102 0 32.................E.........PA.........j.....;
#X connect 103 0 45 0 32.................cA...L....PW....C....nK....;
#X connect 104 0 103 0 32.................Q....Xt+++eD....l6+++KB....;
#X connect 105 0 104 1 32.................F....jQ...fA....YD...r.....;
#X connect 105 0 45 1 32.................GB...D....vg....A....zP....;
#X connect 106 0 12 0 48......................jA.........Y.....++++uR....v++++qD....7++++;
#X connect 107 0 126 0 32.................F.........fA.........v.....;
#X connect 108 0 106 1 32.................G....z9++++A....s++++2.....;
#X connect 109 0 106 1 32.................G....P7++++A....D++++2.....;
#X connect 110 0 112 1 32.................Y....b9+++eF....m++++GC....;
#X connect 111 0 112 1 32.................D....L7+++OA....C++++i.....;
#X connect 112 0 115 0 32.................C.........v..........T.....;
#X connect 113 0 31 0 32......................DV+++O.....g0+++C.....;
#X connect 114 0 108 0 32......................Xl+++O.....l4+++C.....;
#X connect 114 0 111 0 32......................DM.........QC.........;
#X connect 114 1 113 0 48......................HB.........h....X++++eY....1++++WF...f8++++;
#X connect 114 2 117 1 32.................Z....LO...fF....yC...PC....;
#X connect 114 3 109 0 32.......................l+++O.....f4+++C.....;
#X connect 114 3 110 0 48......................nB.........p....f8+++ue....X++++6G....1++++;
#X connect 115 0 116 0 32.................C.........v..........T.....;
#X connect 115 1 120 0 48......................TB.........k....P8+++eR....T++++mD....0++++;
#X connect 116 0 121 0 32.................C.........v..........T.....;
#X connect 117 0 118 0 32.................D....HA....A....R....b.....;
#X connect 117 1 119 0 32.................E....X++++eA....1++++q.....;
#X connect 118 0 116 1 48......................78+++O.....e++++u9+++eu++++q++++26++++5++++;
#X connect 119 0 116 1 48......................b7+++O.....G++++i9+++ei++++n++++23+++O5++++;
#X connect 120 1 117 0 32.................D....X7+++OA....F++++i.....;
#X connect 121 0 81 0 48......................bx+++O.....m7+++6x++++t8+++t7+++ua+++uK++++;
#X connect 122 0 123 0 32.................L....3.....C....N....fA....;
#X connect 124 0 122 1 48......................r9+++O.....q++++G++++u0++++w++++a8+++e7++++;
#X connect 125 0 122 1 48.......................9+++O.....f++++y6++++u++++79++++6+++Ou++++;
#X connect 126 0 128 0 32.................J....79+++uB....u++++SA....;
#X connect 126 1 114 0 32.................M....D....PC....A....jA....;
#X connect 127 0 22 0 32.................VA...v8+++uU....b++++uJ....;
#X connect 127 1 31 1 32.................7A...f.....e....H....fO....;
#X connect 127 2 81 0 32.................JA...v++++uR....7++++OI....;
#X connect 127 3 83 0 32.................EA...PJ...PQ....jB...fK....;
#X connect 128 0 108 0 32......................3p+++O.....t5+++W.....;
#X connect 128 1 113 0 48......................DI.........QB...r++++uq....6++++6J...v9++++;
#X connect 128 2 124 0 32.................f....Ln+++OH....C5++++C....;
#X connect 128 2 109 0 32.................B....nq+++u.....55+++W.....;
#X connect 128 2 111 0 48......................HM.........RC...H.....+....B....vO...PA....;
#X connect 129 0 122 1 48......................X++++O.....1++++a8+++O6++++V++++y9+++u0++++;
#X restore 195 320 pd unfold;
#N canvas 356 402 497 403 fold 0;
#X obj 37 37 inlet;
#X msg 37 82 10;
#X obj 37 105 until;
#X obj 37 60 t b b;
#X obj 37 128 f 1;
#X obj 67 128 + 1;
#X msg 81 89 1;
#X obj 131 76 r \$2-Arg;
#X obj 199 76 r \$2-xPos;
#X obj 273 76 r \$2-yPos;
#X obj 350 76 r \$2-width;
#X obj 37 152 pack f s f f f f, f 44;
#X obj 341 106 +;
#X obj 341 130 - 10;
#X msg 37 191 \; \$2-\$1_r pos \$6 \$4 \; \$2-\$1_r size 1 1 \; \$2-\$1_r label x \; \$2-\$1_r label_pos 3 3 x \; \$2-\$1_r label_font 0 1 \; \$2_scroll_r pos \$6 \$4 \; \$2_scroll_r size 1 1 \; \$2_scrollIndicator pos \$6 \$4 \; \$2_scrollIndicator vis_size 1 1;
#X connect 0 0 3 0;
#X connect 1 0 2 0;
#X connect 2 0 4 0;
#X connect 3 0 1 0;
#X connect 3 1 6 0;
#X connect 4 0 5 0;
#X connect 4 0 11 0;
#X connect 5 0 4 1;
#X connect 6 0 4 1;
#X connect 7 0 11 1;
#X connect 8 0 11 2;
#X connect 8 0 12 1;
#X connect 9 0 11 3;
#X connect 10 0 11 4;
#X connect 10 0 12 0;
#X connect 11 0 14 0;
#X connect 12 0 13 0;
#X connect 13 0 11 5;
#X restore 218 342 pd fold;
#X obj 195 370 outlet;
#X obj 335 132 loadbang;
#X obj 335 156 symbol \$2;
#X obj 335 180 s \$2-Arg;
#X obj 841 108 inlet;
#N canvas 730 380 697 515 setContent 0;
#X obj 95 34 inlet;
#X obj 115 449 s \$2-Array;
#X obj 135 208 t b s;
#X obj 135 232 f;
#X obj 165 231 + 1;
#X msg 196 209 0;
#X obj 135 256 pack f s;
#X msg 158 364 set;
#X msg 135 280 add2 \$1 \$2 \, addcomma;
#X obj 95 91 t b b a b;
#X obj 26 149 outlet;
#N canvas 92 117 450 300 list-drip 0;
#X obj 63 84 t a a;
#X obj 63 241 spigot;
#X obj 102 149 bang;
#X obj 102 168 1;
#X obj 223 149 route bang;
#X obj 183 150 bang;
#X obj 183 169 0;
#X obj 102 114 list split 2;
#X obj 232 379 list split;
#X obj 299 328 list length;
#X obj 299 350 >> 1;
#X obj 63 260 t a a a a;
#X obj 63 446 list split;
#X obj 130 398 list length;
#X obj 130 423 >> 1;
#X obj 31 19 inlet;
#X obj 290 175 outlet;
#X text 73 19 Copyright 2009 by Mathieu Bouchard;
#X obj 31 53 t b a;
#X obj 465 119 outlet;
#X text 520 121 signal end of list;
#X text 381 23 made compatible with [list-drip]: fbar 2009;
#X connect 0 0 1 0;
#X connect 0 1 7 0;
#X connect 1 0 11 0;
#X connect 2 0 3 0;
#X connect 3 0 1 1;
#X connect 4 1 16 0;
#X connect 5 0 6 0;
#X connect 6 0 1 1;
#X connect 7 0 2 0;
#X connect 7 2 4 0;
#X connect 7 2 5 0;
#X connect 8 0 0 0;
#X connect 9 0 10 0;
#X connect 10 0 8 1;
#X connect 11 0 12 0;
#X connect 11 1 13 0;
#X connect 11 2 8 0;
#X connect 11 3 9 0;
#X connect 12 1 0 0;
#X connect 13 0 14 0;
#X connect 14 0 12 1;
#X connect 15 0 18 0;
#X connect 18 0 19 0;
#X connect 18 1 0 0;
#X restore 135 184 pd list-drip;
#X obj 95 58 route bang;
#X obj 326 76 t b b;
#X msg 115 396 0 First \, 1 Second \, 2 Third \,;
#X obj 26 122 del;
#X obj 384 279 sel 1;
#X obj 384 348 pipe;
#X obj 384 252 < 0;
#X obj 326 100 del;
#X obj 539 128 inlet add;
#X obj 539 154 t b a;
#X msg 397 214 0;
#X obj 384 302 v \$2-state;
#X obj 675 271 v \$2-numPres;
#X obj 115 125 symbol \$2;
#X msg 384 325 0 \, \$1;
#X msg 27 219 reset \; \$1_r label \$1;
#X connect 0 0 12 0;
#X connect 2 0 3 0;
#X connect 2 1 6 1;
#X connect 3 0 4 0;
#X connect 3 0 6 0;
#X connect 3 0 18 0;
#X connect 3 0 18 1;
#X connect 4 0 3 1;
#X connect 4 0 24 0;
#X connect 5 0 3 1;
#X connect 6 0 8 0;
#X connect 7 0 14 0;
#X connect 8 0 14 0;
#X connect 9 0 15 0;
#X connect 9 1 14 0;
#X connect 9 2 11 0;
#X connect 9 3 7 0;
#X connect 9 3 5 0;
#X connect 9 3 25 0;
#X connect 11 0 2 0;
#X connect 12 0 13 0;
#X connect 12 1 9 0;
#X connect 13 0 19 0;
#X connect 13 0 22 0;
#X connect 13 1 9 0;
#X connect 14 0 1 0;
#X connect 15 0 10 0;
#X connect 16 0 23 0;
#X connect 17 0 10 0;
#X connect 18 0 16 0;
#X connect 19 0 1 0;
#X connect 20 0 21 0;
#X connect 21 0 14 0;
#X connect 21 0 15 0;
#X connect 21 1 11 0;
#X connect 22 0 18 1;
#X connect 23 0 26 0;
#X connect 25 0 27 0;
#X connect 26 0 17 0;
#X connect 27 0 1 0;
#X restore 895 212 pd setContent;
#X obj 841 242 s \$2-Array;
#X obj 564 176 pdcontrol;
#X msg 564 200 \$3;
#X msg 564 250 \$4;
#X msg 747 363 \$5;
#X obj 564 224 s \$2-xPos;
#X obj 564 274 s \$2-yPos;
#X obj 747 387 s \$2-width;
#X msg 564 151 args;
#X obj 195 90 r \$2_s;
#N canvas 593 166 1069 637 createMenu 0;
#X obj 27 48 inlet;
#X msg 73 120 \; \$2_r 1;
#X obj 37 205 spigot 1;
#X msg 90 95 0;
#X obj 199 147 outlet;
#X msg 199 101 1;
#X obj 199 125 pipe;
#X obj 37 229 unpack s s f f f;
#X obj 83 260 expr $f2-$f1;
#X obj 27 84 t b a a;
#X obj 27 135 list;
#X obj 429 165 outlet;
#X obj 90 41 r \$2_s;
#X obj 90 71 spigot 1;
#X obj 27 108 del;
#X obj 188 264 r \$2-height;
#X obj 37 175 list split 6;
#X msg 244 224 1;
#X obj 188 347 expr $f1-$f1/2;
#X obj 188 302 - 1;
#X obj 37 386 pack s s f f f f f f f;
#X msg 36 413 \; \$1 obj \$3 \$4 vsl 8 2 0 127 0 0 \$2-1_s \$2-1_r x 3 6 0 10 #D9D9D9 #D9D9D9 #606060 0 0 \; \$1 obj \$3 \$4 vsl 8 2 0 127 0 0 \$2-2_s \$2-2_r x 3 6 0 10 #D9D9D9 #D9D9D9 #606060 0 0 \; \$1 obj \$3 \$4 vsl 8 2 0 127 0 0 \$2-3_s \$2-3_r x 3 6 0 10 #D9D9D9 #D9D9D9 #606060 0 0 \; \$1 obj \$3 \$4 vsl 8 2 0 127 0 0 \$2-4_s \$2-4_r x 3 6 0 10 #D9D9D9 #D9D9D9 #606060 0 0 \; \$1 obj \$3 \$4 vsl 8 2 0 127 0 0 \$2-5_s \$2-5_r x 3 6 0 10 #D9D9D9 #D9D9D9 #606060 0 0 \; \$1 obj \$3 \$4 vsl 8 2 0 127 0 0 \$2-6_s \$2-6_r x 3 6 0 10 #D9D9D9 #D9D9D9 #606060 0 0 \; \$1 obj \$3 \$4 vsl 8 2 0 127 0 0 \$2-7_s \$2-7_r x 3 6 0 10 #D9D9D9 #D9D9D9 #606060 0 0 \; \$1 obj \$3 \$4 vsl 8 2 0 127 0 0 \$2-8_s \$2-8_r x 3 6 0 10 #D9D9D9 #D9D9D9 #606060 0 0 \; \$1 obj \$3 \$4 vsl 8 2 0 127 0 0 \$2-9_s \$2-9_r x 3 6 0 10 #D9D9D9 #D9D9D9 #606060 0 0 \; \$1 obj \$3 \$4 vsl 8 2 0 127 0 0 \$2-10_s \$2-10_r x 3 6 0 10 #D9D9D9 #D9D9D9 #606060 0 0 \; \$1 obj \$3 \$4 vsl 8 2 1 0 0 1 \$2_scroll_s \$2_scroll_r empty 0 -9 0 10 #dcdcdc #dfdfdf #000000 0 0 \; \$1 obj \$3 \$4 cnv 9 1 1 empty \$2_scrollIndicator empty 20 12 0 14 #bbbbbb #404040 0 \; \$1 obj \$5 \$4 vsl \$6 \$7 0 127 0 0 \$2_s \$2_r \$2 5 \$9 0 \$8 #ffffff #fcfcfc #000000 0 0 \;;
#X connect 0 0 9 0;
#X connect 2 0 7 0;
#X connect 2 0 17 0;
#X connect 3 0 2 1;
#X connect 3 0 13 1;
#X connect 5 0 6 0;
#X connect 6 0 4 0;
#X connect 7 0 20 0;
#X connect 7 1 20 1;
#X connect 7 2 8 0;
#X connect 7 2 20 4;
#X connect 7 3 20 3;
#X connect 7 4 8 1;
#X connect 7 4 20 5;
#X connect 8 0 20 2;
#X connect 9 0 14 0;
#X connect 9 1 16 0;
#X connect 9 2 1 0;
#X connect 10 0 11 0;
#X connect 12 0 13 0;
#X connect 13 0 3 0;
#X connect 13 0 5 0;
#X connect 14 0 10 0;
#X connect 15 0 20 6;
#X connect 15 0 19 0;
#X connect 16 0 2 0;
#X connect 16 1 10 1;
#X connect 17 0 13 0;
#X connect 18 0 20 8;
#X connect 19 0 18 0;
#X connect 19 0 20 7;
#X connect 20 0 21 0;
#X restore 444 195 pd createMenu;
#X obj 195 214 spigot;
#X obj 378 339 s \$2;
#X obj 286 323 r \$2-fold;
#X msg 900 363 \$6;
#X obj 1019 383 s \$2-height;
#X obj 267 278 f 0;
#X obj 936 259 t b f;
#X obj 986 259 t b f;
#X obj 1080 235 loadbang;
#X obj 1080 259 symbol \$2;
#X obj 833 278 pack f s f;
#X obj 680 278 pack f s f;
#X msg 833 302 \; \$2_r size \$1 \$3;
#X msg 680 305 \; \$2_r size \$3 \$1;
#X obj 936 171 moses 13;
#X obj 1006 171 moses 13;
#X obj 1133 190 print too_small!;
#X obj 564 367 list split 7;
#X obj 604 403 route bang;
#X obj 895 446 list trim;
#X obj 671 427 t b a;
#X msg 671 451 0;
#X obj 671 475 pipe 1;
#X msg 51 148 500;
#X obj 51 174 del;
#X msg 107 148 stop;
#X obj 195 241 t b b;
#X msg 268 187 0;
#X msg 51 200 1;
#X obj 111 297 s \$2-state;
#N canvas 0 22 450 300 reversed 0;
#X obj 378 57 inlet;
#X obj 378 143 t b f;
#X obj 378 83 moses 0;
#X obj 378 261 outlet;
#X obj 378 169 v \$2-numPres;
#X obj 378 235 +;
#X connect 0 0 2 0;
#X connect 1 0 4 0;
#X connect 1 1 5 1;
#X connect 2 0 1 0;
#X connect 2 1 3 0;
#X connect 4 0 5 0;
#X connect 5 0 3 0;
#X restore 816 178 pd reversed;
#X text 422 72 creationArgs: the menu containing patch's namecanvas name \, the unique menu name \, xPosition \, yPosition \, width \, height \, the rest is content;
#X msg 286 347 0;
#X msg 135 339 set 0;
#X msg 298 231 0;
#X obj 274 404 outlet dump;
#X obj 841 140 route float set width height add fold symbol dump;
#X msg 1082 168 dump;
#X connect 0 0 1 0 32.................F....P....fA....D....r.....;
#X connect 0 0 26 1 48......................zA.........c....j+++++U....4++++eE...P9++++;
#X connect 0 0 50 0 32.................F....D6+++uA....w9+++u.....;
#X connect 1 0 2 0 32.................B.........f..........P.....;
#X connect 1 1 3 0 32.................M....j....PC....I....nA....;
#X connect 2 0 3 0 32.................B....bA...f.....W....L.....;
#X connect 2 0 4 0 32.................P..........D.........7A....;
#X connect 2 0 22 0 32......................bK.........2B.........;
#X connect 2 0 54 0 32......................T7+++O.....E++++C.....;
#X connect 2 1 56 0 32.................g....TB...PH....k....DD....;
#X connect 5 0 6 0 32.................C.........v..........T.....;
#X connect 5 0 18 0 32......................TN.........kC.........;
#X connect 6 0 7 0 32.................C.........v..........T.....;
#X connect 8 0 57 0 32.................G.........vA.........z.....;
#X connect 9 0 26 0 32.................X....zX+++OF....M1++++B....;
#X connect 11 0 12 0 32.................C.........v..........T.....;
#X connect 11 0 13 0 32.................b..........G.........bC....;
#X connect 11 0 14 0 32.................3....bK....N....2B...fJ....;
#X connect 11 0 24 0 32.................3.....U....N....PE...fJ....;
#X connect 11 0 38 0 32.................VA........fU.........vJ....;
#X connect 11 0 20 0 32......................j3+++O.....I9+++C.....;
#X connect 12 0 15 0 32.................C.........v..........T.....;
#X connect 13 0 16 0 32.................C.........v..........T.....;
#X connect 14 0 17 0 32.................C.........v..........T.....;
#X connect 14 0 32 2 48......................P++++O.....z++++m4++++4++++Y9+++e9+++el++++;
#X connect 18 0 11 0 32.................C.........v..........X.....;
#X connect 19 0 21 0 32.................0.........PM.........jF....;
#X connect 20 0 21 1 32......................7w+++O.....e7+++C.....;
#X connect 20 1 9 0 48......................vK.........7B...7++++OdA...+++++iW...v+++++;
#X connect 21 0 47 0 32.................D..........A.........f.....;
#X connect 23 0 3 0 32......................z6+++O.....89+++C.....;
#X connect 23 0 53 0 32.................C....7+++++.....+++++W.....;
#X connect 24 0 31 2 48......................P++++O.....z++++m4++++4++++Y9+++e9+++el++++;
#X connect 24 0 25 0 32......................bG.........2A...D.....;
#X connect 26 0 1 0 32......................j6+++O.....49+++C.....;
#X connect 26 0 50 0 32......................T1+++O.....k8+++C.....;
#X connect 27 0 26 0 32......................PV+++O.....j0+++C.....;
#X connect 27 1 17 0 48.................u....73++++K....O9+++6D...PN++++NA...jy+++ea....;
#X connect 27 1 31 0 32......................73+++O.....O9+++C.....;
#X connect 27 1 32 2 32......................7w+++O.....e7+++C.....;
#X connect 28 0 26 0 32......................HS+++O.....xz+++C.....;
#X connect 28 1 25 0 32.................0....XA...PM....V....jF....;
#X connect 28 1 31 2 32......................X3+++O.....F9+++C.....;
#X connect 28 1 32 0 32......................Pr+++O.....D6+++C.....;
#X connect 29 0 30 0 32.................C.........v..........T.....;
#X connect 30 0 31 1 32......................3w+++O.....d7+++C.....;
#X connect 30 0 32 1 32......................Tn+++O.....E5+++C.....;
#X connect 31 0 33 0 32.................C.........v..........T.....;
#X connect 32 0 34 0 32.................D..........A.........f.....;
#X connect 35 0 37 0 32......................TL.........EC.........;
#X connect 35 1 27 0 32.................i....f8++++H....X++++WD....;
#X connect 36 0 37 0 32......................7G.........+A.........;
#X connect 36 1 28 0 32.................i....P7++++H....D++++WD....;
#X connect 38 1 39 0 32.................I....PA...PB....T....DA....;
#X connect 39 1 41 0 32.................C....DA...v.....Q....T.....;
#X connect 40 0 9 0 48......................................Pv+++O.....D7+++C.....A++++;
#X connect 41 0 42 0 32.................C....7+++++.....+++++W.....;
#X connect 41 1 40 0 32......................PM.........TC.........;
#X connect 42 0 43 0 32.................C....H....v.....B....T.....;
#X connect 43 0 0 0 48......................D1+++O.....g8+++Gx+++OH9+++g7+++Ch+++eH++++;
#X connect 44 0 45 0 32.................D..........A.........b.....;
#X connect 45 0 49 0 32.................D....3++++OA....9++++e.....;
#X connect 46 0 45 0 32.................D....j7+++OA....I++++e.....;
#X connect 47 0 0 0 32.................F....v++++uA....7++++u.....;
#X connect 47 0 44 0 64......................r7+++O.....K++++25+++ek++++s9+++W4+++ej++++w8+++G4+++eb++++Q9+++C;
#X connect 47 1 48 0 48......................zA.........c....f6+++uN....39+++qC....t++++;
#X connect 47 1 46 0 48......................r8+++O.....a++++G4+++Om++++Q9+++y4+++ej++++;
#X connect 48 0 21 1 32.................D....D8+++OA....Q++++i.....;
#X connect 49 0 21 1 48......................jC.........4....v++++up....7++++qJ....+++++;
#X connect 51 0 10 0 32.................W....jA...vE....Y....zB....;
#X connect 53 0 0 0 48.................E++++68+++ew++++d++++G5++++n++++g9+++O5+++en++++;
#X connect 54 0 0 0 48......................zA.........c....j5+++ON....o9+++iC...Pp++++;
#X connect 55 0 0 0 32.................K....b4++++B....W9+++WA....;
#X connect 57 0 51 0 32.................J....f9+++uB....n++++OA....;
#X connect 57 1 9 0 32.................a....PA...vF....T....TC....;
#X connect 57 2 35 0 32.................F....nA...fA....Z....v.....;
#X connect 57 3 36 0 32.................F....zC...fA....8....v.....;
#X connect 57 4 9 1 32.................a....D+++++F....w++++WC....;
#X connect 57 5 55 0 80......................n4+++O.....Z9+++q......9+++J.....f+++eE....Z1+++WA...fl8+++e....LS++++G....yz+++iD....;
#X connect 57 6 2 1 64......................n2+++O.....58+++uA....W8+++a....vU+++uM....Uy+++aC...P07+++gB....;
#X connect 57 7 58 0 32.................E....7++++eA....+++++m.....;
#X connect 58 0 2 1 48......................bX+++O.....G1+++KC....s7+++x....PK+++eg....;
